<?xml version="1.0" encoding="utf-8"?>
<!-- Generator: Adobe Illustrator 22.0.1, SVG Export Plug-In . SVG Version: 6.00 Build 0)  -->
<svg version="1.1" id="Warstwa_1" xmlns="http://www.w3.org/2000/svg" xmlns:xlink="http://www.w3.org/1999/xlink" x="0px" y="0px"
	 viewBox="0 0 841.9 214.7" style="enable-background:new 0 0 841.9 214.7;" xml:space="preserve">
<style type="text/css">
	.st0{fill:#FFFFFF;}
	.st1{fill:none;stroke:#FFFFFF;stroke-width:13;stroke-miterlimit:10;}
</style>
<g>
	<path class="st0" d="M105,69.3c3.2,1.4,6,3.3,8.4,5.7c2.4,2.4,4.3,5.2,5.7,8.3c1.4,3.2,2.1,6.6,2.1,10.2s-0.7,7.1-2.1,10.3
		c-1.4,3.2-3.3,6-5.7,8.4c-2.4,2.4-5.2,4.3-8.4,5.7c-3.2,1.4-6.7,2.1-10.3,2.1H84.2l5.1-12.6h5.4c3.8,0,7-1.4,9.8-4.1s4.1-6,4.1-9.8
		s-1.4-7.1-4.1-9.7c-2.7-2.7-6-4.1-9.8-4.1H79.9v61H67.3V67.2h27.4C98.4,67.2,101.8,67.9,105,69.3z"/>
	<path class="st0" d="M148.5,140.7h-12.6V67.3h12.6V140.7z"/>
	<path class="st0" d="M201.4,65.7c5.3,0,10.2,1,14.9,3s8.7,4.7,12.2,8.2s6.2,7.5,8.2,12.2s3,9.6,3,14.9s-1,10.2-3,14.9
		c-2,4.7-4.7,8.7-8.2,12.2s-7.5,6.2-12.2,8.2s-9.6,3-14.9,3s-10.2-1-14.9-3s-8.7-4.7-12.2-8.2s-6.2-7.5-8.2-12.2s-3-9.6-3-14.9
		s1-10.2,3-14.9c2-4.7,4.7-8.7,8.2-12.2s7.5-6.2,12.2-8.2S196.2,65.7,201.4,65.7z M201.4,78.3c-3.4,0-6.7,0.6-9.8,1.9
		s-5.8,3.2-8.3,5.6c-2.5,2.5-4.3,5.2-5.6,8.3c-1.3,3.1-1.9,6.3-1.9,9.8c0,3.4,0.6,6.7,1.9,9.8c1.3,3.1,3.2,5.9,5.6,8.3
		c2.4,2.5,5.2,4.3,8.3,5.6s6.3,1.9,9.8,1.9c3.4,0,6.7-0.6,9.8-1.9s5.9-3.1,8.3-5.6c2.4-2.4,4.3-5.2,5.6-8.3c1.3-3.1,1.9-6.4,1.9-9.8
		s-0.6-6.7-1.9-9.8c-1.3-3.1-3.1-5.8-5.6-8.3c-2.5-2.4-5.2-4.3-8.3-5.6C208.1,78.9,204.8,78.3,201.4,78.3z"/>
	<path class="st0" d="M302.5,79.8H281v60.9h-12.6V79.8h-21.6V67.2h21.6H281h21.5V79.8z"/>
	<path class="st0" d="M370,93.6c0,2.7-0.4,5.2-1.1,7.6s-1.8,4.6-3,6.7c-1.3,2-2.9,3.9-4.7,5.5c-1.9,1.6-3.9,3-6.1,4l15,23.3h-15
		L341.8,120h-8.6l5.1-12.6h5.5c3.8,0,7-1.4,9.8-4.1c1.3-1.3,2.2-2.8,2.9-4.5c0.7-1.7,1.1-3.4,1.1-5.3c0-1.8-0.4-3.6-1.1-5.3
		c-0.7-1.7-1.7-3.1-2.9-4.4c-2.7-2.7-6-4.1-9.8-4.1h-14.9v6.9v20.7v12.6v20.8h-12.6V120V86.7V67.2h27.5c3.6,0,7.1,0.7,10.2,2.1
		c3.2,1.4,6,3.3,8.3,5.7c2.4,2.4,4.3,5.2,5.7,8.3C369.3,86.5,370,89.9,370,93.6z"/>
	<path class="st0" d="M488.8,100.7c0.1,1,0.2,2.1,0.2,3.1c0,5.3-1,10.2-3,14.9c-2,4.7-4.7,8.7-8.2,12.2s-7.5,6.2-12.2,8.2
		s-9.6,3-14.9,3s-10.2-1-14.9-3c-4.7-2-8.7-4.7-12.2-8.2s-6.2-7.5-8.2-12.2s-3-9.6-3-14.9s1-10.2,3-14.9c2-4.7,4.7-8.7,8.2-12.2
		s7.5-6.2,12.2-8.2s9.6-3,14.9-3s10.3,1,14.9,3s8.6,4.7,12.1,8.2l-8.8,8.9c-2.5-2.4-5.2-4.3-8.3-5.6c-3.1-1.3-6.4-1.9-9.8-1.9
		s-6.7,0.6-9.8,1.9c-3.1,1.3-5.8,3.2-8.3,5.6c-2.5,2.5-4.3,5.2-5.6,8.3c-1.3,3.1-1.9,6.3-1.9,9.8c0,3.4,0.6,6.7,1.9,9.8
		c1.3,3.1,3.2,5.9,5.6,8.3c2.4,2.5,5.2,4.3,8.3,5.6c3.1,1.3,6.3,1.9,9.8,1.9c3.4,0,6.7-0.6,9.8-1.9c3.1-1.3,5.9-3.1,8.3-5.6
		c3.3-3.4,5.5-7.4,6.7-11.9h-34l3.2-12.6h43.7C488.6,98.6,488.7,99.7,488.8,100.7z"/>
	<path class="st0" d="M515.8,79.8v17.9h27.4l3.2,12.6h-30.6v17.9h36.9v12.5h-49.5V67.2h49.5v12.6C552.7,79.8,515.8,79.8,515.8,79.8z
		"/>
	<path class="st0" d="M617.8,101.5c2.8,2,5,4.5,6.7,7.6s2.5,6.4,2.5,10.1v0.2c0,2.9-0.6,5.7-1.7,8.3c-1.1,2.6-2.7,4.9-4.6,6.8
		c-2,1.9-4.2,3.4-6.8,4.6c-2.6,1.1-5.4,1.7-8.3,1.7h-20.9l5-12.6h15.9c2.4,0,4.5-0.9,6.2-2.6s2.6-3.8,2.6-6.2v-0.2
		c0-2.5-0.9-4.5-2.6-6.2c-1.7-1.7-3.8-2.6-6.2-2.6h-5.1h-20.6v17.9v12.4h-12.6v-30.5V97.7V67.2h33.2c2.9,0,5.7,0.6,8.3,1.7
		s4.9,2.7,6.8,4.6c1.9,2,3.4,4.2,4.6,6.8c1.1,2.6,1.7,5.4,1.7,8.3v0.2c0,2.4-0.4,4.6-1.1,6.8C620.1,97.8,619.1,99.7,617.8,101.5z
		 M609.3,88.6c0-2.4-0.9-4.5-2.6-6.2c-1.7-1.7-3.8-2.6-6.2-2.6h-20.6v17.9h20.6c2.4,0,4.5-0.9,6.2-2.6s2.6-3.8,2.6-6.2V88.6z"/>
	<path class="st0" d="M682.3,140.9L654.4,113v27.7h-12.6V67.3h12.6v27.8l27.7-27.7h17.8L663.3,104l36.9,36.9H682.3L682.3,140.9z"/>
	<path class="st0" d="M790.3,140.7h-13.9l-5.7-12.6l-5.7-12.6l-14.9-33l-14.9,33h19.1l5.7,12.6h-30.5l-5.5,12.6h-13.9l33.2-73.5
		h13.9L790.3,140.7z"/>
</g>
<g>
	<path class="st0" d="M235.6,183.6c0,0.4,0,0.7,0,1.1c0,1.8-0.3,3.7-1,5.2c-0.7,1.7-1.6,3.1-2.7,4.2c-1.1,1.3-2.5,2.1-4.1,2.8
		s-3.3,1-4.9,1c-1.7,0-3.4-0.3-4.9-1c-1.6-0.7-3-1.7-4.1-2.8c-1.1-1.3-2.1-2.7-2.8-4.2c-0.7-1.7-1-3.4-1-5.2s0.3-3.7,1-5.2
		c0.7-1.7,1.6-3.1,2.8-4.2c1.1-1.3,2.5-2.1,4.1-2.8s3.3-1,4.9-1c1.8,0,3.4,0.3,4.9,1s3,1.7,4.1,3l-3,3.1c-0.8-0.8-1.7-1.6-2.8-2
		c-1-0.4-2.1-0.7-3.3-0.7c-1.1,0-2.3,0.3-3.3,0.7s-2,1.1-2.8,2s-1.4,1.8-1.8,3s-0.7,2.3-0.7,3.4c0,1.3,0.3,2.4,0.7,3.5
		s1.1,2.1,1.8,3s1.7,1.6,2.8,2c1,0.4,2.1,0.7,3.3,0.7c1.1,0,2.3-0.3,3.3-0.7s2-1.1,2.8-2c1.1-1.3,1.8-2.5,2.3-4.2h-11.5l1.1-4.5
		h14.6C235.6,182.7,235.6,183.1,235.6,183.6z"/>
	<path class="st0" d="M263,181c0,1-0.1,1.8-0.4,2.7c-0.3,0.8-0.6,1.7-1,2.4s-1,1.4-1.6,2s-1.3,1-2.1,1.4l5.1,8.2h-5l-4.5-7.4h-3
		l1.7-4.5h1.8c1.3,0,2.4-0.4,3.3-1.4c0.4-0.4,0.7-1,1-1.6s0.4-1.3,0.4-1.8c0-0.6-0.1-1.3-0.4-1.8c-0.3-0.6-0.6-1.1-1-1.6
		c-0.8-1-2-1.4-3.3-1.4h-5v2.4v7.4v4.5v7.4h-4.2v-7.4v-11.7v-6.9h9.2c1.3,0,2.4,0.3,3.4,0.7c1.1,0.6,2,1.1,2.8,2
		c0.8,0.8,1.4,1.8,2,3C262.8,178.5,263,179.7,263,181z"/>
	<path class="st0" d="M298.5,197.7h-4.7l-1.8-4.5l-2-4.5l-5-11.7l-4.9,11.6h6.4l2,4.5H278l-2,4.5h-4.7l11.2-26h4.7L298.5,197.7z"/>
	<path class="st0" d="M319.9,172.4c1.1,0.6,2,1.1,2.8,2c0.8,0.8,1.4,1.8,2,3c0.4,1.1,0.7,2.3,0.7,3.7s-0.3,2.5-0.7,3.7s-1.1,2.1-2,3
		c-0.8,0.8-1.7,1.6-2.8,2c-1.1,0.4-2.3,0.7-3.5,0.7h-3.5l1.7-4.5h1.8c1.3,0,2.4-0.4,3.3-1.4c0.8-1,1.4-2.1,1.4-3.4
		c0-1.4-0.4-2.5-1.4-3.4c-0.8-1-2-1.4-3.3-1.4h-4.9v21.5h-4.2v-26h9.2C317.6,171.7,318.7,172,319.9,172.4z"/>
	<path class="st0" d="M353.2,171.7v26H349V187h-10.3v10.7h-4.2v-26h4.2v10.7H349v-10.7H353.2z"/>
	<path class="st0" d="M367.2,197.7H363v-26h4.2V197.7z"/>
	<path class="st0" d="M398.3,194.2c-1.1,1.3-2.5,2.3-4.1,3s-3.3,1-4.9,1c-1.8,0-3.4-0.3-4.9-1s-3-1.7-4.1-2.8
		c-1.1-1.3-2.1-2.7-2.8-4.2c-0.7-1.7-1-3.4-1-5.2s0.3-3.7,1-5.2c0.7-1.7,1.6-3.1,2.8-4.2c1.1-1.3,2.5-2.1,4.1-2.8s3.3-1,4.9-1
		c1.8,0,3.4,0.3,4.9,1c1.6,0.7,3,1.7,4.1,3l-3,3.1c-0.8-0.8-1.7-1.6-2.8-2c-1-0.4-2.1-0.7-3.4-0.7c-1.1,0-2.3,0.3-3.3,0.7
		s-2,1.1-2.8,2c-0.8,0.8-1.4,1.8-1.8,3s-0.7,2.3-0.7,3.4c0,1.3,0.3,2.4,0.7,3.5s1.1,2.1,1.8,3s1.7,1.6,2.8,2c1,0.4,2.1,0.7,3.3,0.7
		s2.3-0.3,3.4-0.7c1-0.4,2-1.1,2.8-2L398.3,194.2z"/>
	<path class="st0" d="M436.2,172.7c1.6,0.7,2.8,1.6,4,2.8c1.1,1.1,2,2.5,2.7,4.1s1,3.3,1,5.1s-0.3,3.5-1,5.1s-1.6,3-2.7,4.1
		s-2.4,2.1-4,2.8s-3.1,1-4.8,1H427l1.7-4.5h2.7c1.1,0,2.1-0.3,3.1-0.7s1.8-1,2.7-1.8c0.7-0.8,1.3-1.7,1.7-2.8c0.4-1,0.6-2.1,0.6-3.3
		s-0.1-2.3-0.6-3.3c-0.4-1-1-2-1.7-2.8s-1.7-1.4-2.7-1.8c-1-0.4-2-0.7-3.1-0.7h-6.1v10.7v6.4v4.5h-4.2v-26h10.3
		C433.1,171.7,434.8,172,436.2,172.7z"/>
	<path class="st0" d="M457.3,176.1v6.4h9.2l1.1,4.5h-10.3v6.4h12.4v4.5H453v-26h16.7v4.5h-12.4L457.3,176.1L457.3,176.1z"/>
	<path class="st0" d="M496.4,190.2c0,1.3-0.1,2.3-0.6,3.3s-0.8,1.8-1.6,2.5s-1.6,1.3-2.5,1.6c-1,0.3-2.1,0.6-3.3,0.6
		c-2,0-3.7-0.3-5.2-1c-1.6-0.7-2.8-1.4-3.8-2.3l3-3.1c0.8,0.7,1.7,1.3,2.7,1.7c0.6,0.3,1.1,0.4,1.7,0.4c0.6,0.1,1,0.1,1.3,0.1
		c0.6,0,1.1-0.1,1.7-0.3c0.6-0.1,1-0.4,1.3-0.7c0.8-0.6,1.1-1.4,1.1-2.4c0-0.6-0.3-1.1-0.7-1.7c-0.3-0.4-0.7-0.7-1.3-1
		c-0.4-0.3-0.8-0.4-1.4-0.6c-0.4-0.1-0.8-0.3-1.3-0.4c-0.1,0-0.3-0.1-0.3-0.1c-0.1,0-0.1,0-0.3-0.1c0,0-0.1,0-0.3-0.1
		c-0.4-0.1-1.3-0.4-2.1-0.8c-1-0.4-1.8-0.8-2.8-1.6c-2.1-1.6-3.3-3.4-3.3-5.5c0-1.4,0.3-2.7,0.7-3.7c0.4-1,1.1-1.8,1.8-2.4
		c0.8-0.6,1.7-1.1,2.5-1.4c0.8-0.3,1.8-0.4,2.8-0.4c1.7,0,3.1,0.1,4.2,0.6c1.1,0.4,2.1,0.8,2.8,1.3c0.4,0.3,0.7,0.4,0.8,0.7
		c0.3,0.1,0.4,0.4,0.7,0.6l-3,3.3c-0.7-0.7-1.3-1.1-2-1.6c-1-0.6-2-0.7-3.1-0.7c-0.4,0-1,0-1.4,0.1s-0.8,0.3-1.3,0.4
		c-1,0.7-1.6,1.6-1.6,2.7c0,0.7,0.1,1.3,0.7,1.7c0.3,0.4,0.7,0.7,1.3,1c0.4,0.3,1,0.4,1.4,0.6c0.6,0.1,1,0.3,1.4,0.4l0.4,0.1
		c0.1,0,0.3,0.1,0.7,0.3c0.3,0.1,0.7,0.3,1.1,0.4s1,0.4,1.4,0.7c0.6,0.3,1,0.6,1.6,1C495.3,186.2,496.4,188.1,496.4,190.2z"/>
	<path class="st0" d="M510,197.7h-4.2v-26h4.2V197.7z"/>
	<path class="st0" d="M545.1,183.6c0,0.4,0,0.7,0,1.1c0,1.8-0.3,3.7-1,5.2c-0.7,1.7-1.6,3.1-2.8,4.2c-1.1,1.3-2.5,2.1-4.1,2.8
		s-3.3,1-4.9,1c-1.7,0-3.4-0.3-4.9-1c-1.6-0.7-3-1.7-4.1-2.8c-1.1-1.3-2.1-2.7-2.7-4.2c-0.7-1.7-1-3.4-1-5.2s0.3-3.7,1-5.2
		c0.7-1.7,1.6-3.1,2.7-4.2c1.1-1.3,2.5-2.1,4.1-2.8s3.3-1,4.9-1c1.8,0,3.5,0.3,5.1,1s3,1.7,4.1,3l-3,3.1c-0.8-0.8-1.7-1.6-2.8-2
		c-1-0.4-2.1-0.7-3.3-0.7c-1.1,0-2.3,0.3-3.3,0.7s-2,1.1-2.8,2s-1.4,1.8-1.8,3s-0.7,2.3-0.7,3.4c0,1.3,0.3,2.4,0.7,3.5
		s1.1,2.1,1.8,3c0.7,0.8,1.7,1.6,2.8,2c1,0.4,2.1,0.7,3.3,0.7c1.1,0,2.3-0.3,3.3-0.7s2-1.1,2.8-2c1.1-1.3,1.8-2.5,2.3-4.2h-11.5
		l1.1-4.5h14.7C545.1,182.7,545.1,183.1,545.1,183.6z"/>
	<path class="st0" d="M573.1,171.7v25.9h-4.7l-9.9-17.8v17.8h-4.2v-26h4.7l9.9,17.8v-17.8h4.2V171.7z"/>
	<path class="st0" d="M586.9,176.1v6.4h9.2l1.1,4.5h-10.3v6.4h12.4v4.5h-16.7v-26h16.7v4.5h-12.4V176.1z"/>
	<path class="st0" d="M626.8,181c0,1-0.1,1.8-0.4,2.7c-0.3,0.8-0.6,1.7-1,2.4s-1,1.4-1.6,2s-1.3,1-2.1,1.4l5.1,8.2h-5.1l-4.5-7.4
		h-2.8l1.7-4.5h1.8c1.3,0,2.4-0.4,3.3-1.4c0.4-0.4,0.7-1,1-1.6s0.4-1.3,0.4-1.8c0-0.6-0.1-1.3-0.4-1.8c-0.3-0.6-0.6-1.1-1-1.6
		c-1-1-2-1.4-3.3-1.4H613v2.4v7.4v4.5v7.4h-4.2v-7.4v-11.7v-6.9h9.2c1.3,0,2.4,0.3,3.4,0.7c1.1,0.6,2,1.1,2.8,2s1.4,1.8,2,3
		C626.5,178.5,626.8,179.7,626.8,181z"/>
</g>
<polyline class="st1" points="163.1,192 19.9,192 19.9,22.7 822,22.7 822,192 671,192 "/>
<polyline class="st0" points="521.8,139.7 530.7,147.8 534.8,142.5 532.2,139.7 "/>
</svg>
